<svg xmlns="http://www.w3.org/2000/svg" version="1.0" viewBox="0 0 128 128">
    <path fill="#009B28" d="M16.9 19.7C6.6 30.6 2.5 41.3 1.5 60.5 1 71.1 1.2 74.8 2.5 80c3.6 14 11.1 24.6 20.7 29.4 4.2 2.1 6.6 2.6 12.7 2.6 6.5 0 8.3-.4 14.5-3.5C57.3 105.1 72 93.8 72 91.9c0-.5-.7-.9-1.5-.9-2.2 0-14.1-11.6-16.8-16.4-5.1-9.2-6.2-23.5-2.5-33.1l2-5-3.4 3c-1.8 1.6-3.7 3.4-4.3 4-4.8 4.8-19.1 16.9-23.4 19.8-5.7 4-10.9 4.8-13.1 2.2-3.4-4-1.7-17.4 3.6-28.1 1.4-2.8 4.7-7.6 7.5-10.7 3.5-4 4.9-6.4 4.7-7.9-.5-3.7-3.9-3.3-7.9.9"/>
    <path fill="#ffaf28" d="M78.8 18.9C67 22.8 58.1 30.1 53.4 39.7c-2.6 5.2-2.9 6.8-2.9 15.8 0 8.8.3 10.7 2.7 15.8 3 6.5 12 15.9 17.1 18.1 1.8.7 5.4 1.6 8 2s5.3 1.3 6 2.1c.9.8 1.6 5.1 2.1 11.6 1 16.3 3.9 16.1 4-.3.1-10.6.8-12 6.9-13.2 4.3-.9 9.6-3.6 15.4-7.8 4.1-3 5.9-5.3 8.7-11 4.9-10.2 6-17.5 4-24.7-2.1-7.2-4.7-12.4-9.3-18.4-7.6-10.2-24.5-15.1-37.3-10.8m21.9 5.2c7.8 2.9 16.2 11.3 19.2 19.3 4.2 11.3 2 24.8-5.6 33.8-6.8 8.2-14.7 11.9-25.4 12-13.7.1-24-6.1-30.3-18.2-3.7-7.4-3.8-7.7-3.4-16.5.4-7.3 1-10 3.1-14.2 4.2-8.2 12-14.7 20.7-17.4 5.1-1.5 15.8-1 21.7 1.2"/>
    <path fill="#009961" d="M82 25c-10.1 2.1-19.1 9.4-22.9 18.3-1.5 3.5-2.1 7-2.1 12.6 0 6.6.4 8.7 3 13.8 3.6 7.2 11.1 13.8 17.7 15.5 1.7.5 4.7-1.8 14.5-10.8 9.6-9 14-12.2 20.1-15.2l7.8-3.7-.5-4.3C117.3 33.7 99.5 21.2 82 25"/>
    <path fill="#00AEFF" fill-opacity=".76" d="M108.9 62.3c-5.3 2.6-8 4.8-19.9 16l-8.5 8 9-.7c7.6-.6 9.8-1.2 14.3-3.9 5.9-3.5 10.4-8.5 12.7-14.1 3.3-7.9 1-9.5-7.6-5.3"/>
</svg>